<svg width="903" height="281" viewBox="0 0 903 281" fill="none" xmlns="http://www.w3.org/2000/svg">
<path d="M26.7611 219.454L124.427 276.632C133.072 281.693 143.771 281.715 152.436 276.688L251.13 219.436C259.708 214.46 264.988 205.294 264.988 195.377V84.1644C264.988 74.1799 259.636 64.9615 250.965 60.0109L152.269 3.65971C143.689 -1.23941 133.154 -1.21853 124.593 3.71455L26.9269 59.9922C18.31 64.9574 13 74.1457 13 84.0908V195.451C13 205.328 18.2377 214.464 26.7611 219.454Z" fill="#00E28D"/>
<g filter="url(#filter0_f_1099_2680)">
<path d="M227.72 140.379C227.72 189.431 187.955 229.196 138.903 229.196C89.8506 229.196 50.0859 189.431 50.0859 140.379C50.0859 91.3271 89.8506 51.5625 138.903 51.5625C187.955 51.5625 227.72 91.3271 227.72 140.379Z" fill="white"/>
</g>
<path fill-rule="evenodd" clip-rule="evenodd" d="M124.5 121.27C133.14 126.325 143.831 126.347 152.492 121.326L251.065 64.1875L262.223 83.4377L163.444 140.696C154.862 145.671 149.579 154.84 149.579 164.759V276.107H127.329V164.656C127.329 154.776 122.087 145.637 113.56 140.649L15.7266 83.4154L26.962 64.2099L124.5 121.27Z" fill="#00E28D"/>
<path d="M340.175 215.145C338.657 215.145 337.415 214.662 336.449 213.696C335.483 212.592 335 211.35 335 209.97V75.42C335 73.902 335.483 72.66 336.449 71.694C337.415 70.728 338.657 70.245 340.175 70.245H396.479C414.419 70.245 428.495 74.385 438.707 82.665C448.919 90.807 454.025 102.399 454.025 117.441C454.025 127.239 451.679 135.519 446.987 142.281C442.295 149.043 436.085 154.149 428.357 157.599L456.716 208.521C457.13 209.349 457.337 210.108 457.337 210.798C457.337 211.902 456.854 212.937 455.888 213.903C455.06 214.731 454.094 215.145 452.99 215.145H425.459C422.837 215.145 420.905 214.524 419.663 213.282C418.421 211.902 417.524 210.66 416.972 209.556L393.374 164.016H372.26V209.97C372.26 211.35 371.708 212.592 370.604 213.696C369.638 214.662 368.396 215.145 366.878 215.145H340.175ZM372.26 134.622H396.065C402.551 134.622 407.381 133.035 410.555 129.861C413.867 126.687 415.523 122.409 415.523 117.027C415.523 111.645 413.936 107.298 410.762 103.986C407.726 100.674 402.827 99.018 396.065 99.018H372.26V134.622Z" fill="#504E4E"/>
<path d="M515.381 217.215C507.515 217.215 500.477 215.421 494.267 211.833C488.195 208.245 483.434 203.001 479.984 196.101C476.534 189.063 474.809 180.507 474.809 170.433V112.68C474.809 111.162 475.292 109.92 476.258 108.954C477.224 107.988 478.466 107.505 479.984 107.505H505.859C507.377 107.505 508.619 107.988 509.585 108.954C510.689 109.92 511.241 111.162 511.241 112.68V169.191C511.241 182.715 517.244 189.477 529.25 189.477C534.908 189.477 539.393 187.752 542.705 184.302C546.155 180.714 547.88 175.677 547.88 169.191V112.68C547.88 111.162 548.363 109.92 549.329 108.954C550.295 107.988 551.537 107.505 553.055 107.505H578.93C580.448 107.505 581.69 107.988 582.656 108.954C583.622 109.92 584.105 111.162 584.105 112.68V209.97C584.105 211.35 583.622 212.592 582.656 213.696C581.69 214.662 580.448 215.145 578.93 215.145H554.918C553.538 215.145 552.296 214.662 551.192 213.696C550.226 212.592 549.743 211.35 549.743 209.97V202.104C546.155 207.072 541.463 210.867 535.667 213.489C530.009 215.973 523.247 217.215 515.381 217.215Z" fill="#504E4E"/>
<path d="M674.279 217.215C666.689 217.215 660.272 215.904 655.028 213.282C649.784 210.66 645.506 207.348 642.194 203.346V209.97C642.194 211.35 641.642 212.592 640.538 213.696C639.572 214.662 638.399 215.145 637.019 215.145H613.628C612.11 215.145 610.868 214.662 609.902 213.696C608.936 212.592 608.453 211.35 608.453 209.97V73.35C608.453 71.832 608.936 70.59 609.902 69.624C610.868 68.658 612.11 68.175 613.628 68.175H638.882C640.4 68.175 641.642 68.658 642.608 69.624C643.574 70.59 644.057 71.832 644.057 73.35V117.648C647.507 114.06 651.716 111.162 656.684 108.954C661.652 106.608 667.517 105.435 674.279 105.435C681.179 105.435 687.251 106.608 692.495 108.954C697.877 111.162 702.431 114.405 706.157 118.683C709.883 122.823 712.781 127.929 714.851 134.001C716.921 139.935 718.094 146.559 718.37 153.873C718.508 156.633 718.577 159.117 718.577 161.325C718.577 163.395 718.508 165.81 718.37 168.57C718.094 176.298 716.921 183.198 714.851 189.27C712.781 195.204 709.814 200.31 705.95 204.588C702.224 208.728 697.739 211.902 692.495 214.11C687.251 216.18 681.179 217.215 674.279 217.215ZM663.101 189.477C667.793 189.477 671.45 188.511 674.072 186.579C676.694 184.647 678.557 182.025 679.661 178.713C680.903 175.401 681.662 171.744 681.938 167.742C682.214 163.464 682.214 159.186 681.938 154.908C681.662 150.906 680.903 147.249 679.661 143.937C678.557 140.625 676.694 138.003 674.072 136.071C671.45 134.139 667.793 133.173 663.101 133.173C658.823 133.173 655.304 134.139 652.544 136.071C649.784 137.865 647.714 140.28 646.334 143.316C644.954 146.214 644.195 149.388 644.057 152.838C643.919 155.46 643.85 158.013 643.85 160.497C643.85 162.981 643.919 165.603 644.057 168.363C644.333 172.089 645.092 175.539 646.334 178.713C647.576 181.887 649.577 184.509 652.337 186.579C655.097 188.511 658.685 189.477 663.101 189.477Z" fill="#504E4E"/>
<path d="M744.216 215.145C742.698 215.145 741.456 214.662 740.49 213.696C739.524 212.592 739.041 211.35 739.041 209.97V112.68C739.041 111.162 739.524 109.92 740.49 108.954C741.456 107.988 742.698 107.505 744.216 107.505H768.642C770.16 107.505 771.402 107.988 772.368 108.954C773.334 109.92 773.817 111.162 773.817 112.68V209.97C773.817 211.35 773.334 212.592 772.368 213.696C771.402 214.662 770.16 215.145 768.642 215.145H744.216ZM744.009 91.98C742.491 91.98 741.249 91.497 740.283 90.531C739.317 89.565 738.834 88.323 738.834 86.805V68.175C738.834 66.795 739.317 65.622 740.283 64.656C741.249 63.552 742.491 63 744.009 63H768.849C770.229 63 771.402 63.552 772.368 64.656C773.472 65.622 774.024 66.795 774.024 68.175V86.805C774.024 88.323 773.472 89.565 772.368 90.531C771.402 91.497 770.229 91.98 768.849 91.98H744.009Z" fill="#504E4E"/>
<path d="M848.755 217.215C838.543 217.215 829.504 215.352 821.638 211.626C813.772 207.9 807.493 202.518 802.801 195.48C798.247 188.304 795.763 179.748 795.349 169.812C795.211 167.604 795.142 164.844 795.142 161.532C795.142 158.082 795.211 155.253 795.349 153.045C795.763 142.971 798.247 134.415 802.801 127.377C807.355 120.201 813.565 114.75 821.431 111.024C829.435 107.298 838.543 105.435 848.755 105.435C858.277 105.435 866.419 106.815 873.181 109.575C880.081 112.197 885.601 115.509 889.741 119.511C894.019 123.513 897.193 127.653 899.263 131.931C901.471 136.071 902.644 139.728 902.782 142.902C902.92 144.282 902.437 145.524 901.333 146.628C900.229 147.594 898.987 148.077 897.607 148.077H871.318C869.8 148.077 868.627 147.732 867.799 147.042C866.971 146.352 866.212 145.317 865.522 143.937C863.866 139.659 861.727 136.623 859.105 134.829C856.621 133.035 853.378 132.138 849.376 132.138C843.856 132.138 839.578 133.932 836.542 137.52C833.644 141.108 832.057 146.628 831.781 154.08C831.643 159.6 831.643 164.499 831.781 168.777C832.195 176.367 833.851 181.887 836.749 185.337C839.647 188.787 843.856 190.512 849.376 190.512C853.654 190.512 857.035 189.615 859.519 187.821C862.003 185.889 864.004 182.853 865.522 178.713C866.212 177.333 866.971 176.298 867.799 175.608C868.627 174.918 869.8 174.573 871.318 174.573H897.607C898.987 174.573 900.229 175.056 901.333 176.022C902.437 176.988 902.92 178.23 902.782 179.748C902.644 181.956 901.954 184.647 900.712 187.821C899.47 190.995 897.538 194.307 894.916 197.757C892.294 201.207 888.844 204.381 884.566 207.279C880.426 210.177 875.389 212.592 869.455 214.524C863.521 216.318 856.621 217.215 848.755 217.215Z" fill="#504E4E"/>
<defs>
<filter id="filter0_f_1099_2680" x="0.0221939" y="1.49876" width="277.76" height="277.76" filterUnits="userSpaceOnUse" color-interpolation-filters="sRGB">
<feFlood flood-opacity="0" result="BackgroundImageFix"/>
<feBlend mode="normal" in="SourceGraphic" in2="BackgroundImageFix" result="shape"/>
<feGaussianBlur stdDeviation="25.0319" result="effect1_foregroundBlur_1099_2680"/>
</filter>
</defs>
</svg>
