<svg width="903" height="281" viewBox="0 0 903 281" fill="none" xmlns="http://www.w3.org/2000/svg">
<path d="M340.175 216.145C338.657 216.145 337.415 215.662 336.449 214.696C335.483 213.592 335 212.35 335 210.97V76.42C335 74.902 335.483 73.66 336.449 72.694C337.415 71.728 338.657 71.245 340.175 71.245H396.479C414.419 71.245 428.495 75.385 438.707 83.665C448.919 91.807 454.025 103.399 454.025 118.441C454.025 128.239 451.679 136.519 446.987 143.281C442.295 150.043 436.085 155.149 428.357 158.599L456.716 209.521C457.13 210.349 457.337 211.108 457.337 211.798C457.337 212.902 456.854 213.937 455.888 214.903C455.06 215.731 454.094 216.145 452.99 216.145H425.459C422.837 216.145 420.905 215.524 419.663 214.282C418.421 212.902 417.524 211.66 416.972 210.556L393.374 165.016H372.26V210.97C372.26 212.35 371.708 213.592 370.604 214.696C369.638 215.662 368.396 216.145 366.878 216.145H340.175ZM372.26 135.622H396.065C402.551 135.622 407.381 134.035 410.555 130.861C413.867 127.687 415.523 123.409 415.523 118.027C415.523 112.645 413.936 108.298 410.762 104.986C407.726 101.674 402.827 100.018 396.065 100.018H372.26V135.622Z" fill="white"/>
<path d="M515.381 218.215C507.515 218.215 500.477 216.421 494.267 212.833C488.195 209.245 483.434 204.001 479.984 197.101C476.534 190.063 474.809 181.507 474.809 171.433V113.68C474.809 112.162 475.292 110.92 476.258 109.954C477.224 108.988 478.466 108.505 479.984 108.505H505.859C507.377 108.505 508.619 108.988 509.585 109.954C510.689 110.92 511.241 112.162 511.241 113.68V170.191C511.241 183.715 517.244 190.477 529.25 190.477C534.908 190.477 539.393 188.752 542.705 185.302C546.155 181.714 547.88 176.677 547.88 170.191V113.68C547.88 112.162 548.363 110.92 549.329 109.954C550.295 108.988 551.537 108.505 553.055 108.505H578.93C580.448 108.505 581.69 108.988 582.656 109.954C583.622 110.92 584.105 112.162 584.105 113.68V210.97C584.105 212.35 583.622 213.592 582.656 214.696C581.69 215.662 580.448 216.145 578.93 216.145H554.918C553.538 216.145 552.296 215.662 551.192 214.696C550.226 213.592 549.743 212.35 549.743 210.97V203.104C546.155 208.072 541.463 211.867 535.667 214.489C530.009 216.973 523.247 218.215 515.381 218.215Z" fill="white"/>
<path d="M674.279 218.215C666.689 218.215 660.272 216.904 655.028 214.282C649.784 211.66 645.506 208.348 642.194 204.346V210.97C642.194 212.35 641.642 213.592 640.538 214.696C639.572 215.662 638.399 216.145 637.019 216.145H613.628C612.11 216.145 610.868 215.662 609.902 214.696C608.936 213.592 608.453 212.35 608.453 210.97V74.35C608.453 72.832 608.936 71.59 609.902 70.624C610.868 69.658 612.11 69.175 613.628 69.175H638.882C640.4 69.175 641.642 69.658 642.608 70.624C643.574 71.59 644.057 72.832 644.057 74.35V118.648C647.507 115.06 651.716 112.162 656.684 109.954C661.652 107.608 667.517 106.435 674.279 106.435C681.179 106.435 687.251 107.608 692.495 109.954C697.877 112.162 702.431 115.405 706.157 119.683C709.883 123.823 712.781 128.929 714.851 135.001C716.921 140.935 718.094 147.559 718.37 154.873C718.508 157.633 718.577 160.117 718.577 162.325C718.577 164.395 718.508 166.81 718.37 169.57C718.094 177.298 716.921 184.198 714.851 190.27C712.781 196.204 709.814 201.31 705.95 205.588C702.224 209.728 697.739 212.902 692.495 215.11C687.251 217.18 681.179 218.215 674.279 218.215ZM663.101 190.477C667.793 190.477 671.45 189.511 674.072 187.579C676.694 185.647 678.557 183.025 679.661 179.713C680.903 176.401 681.662 172.744 681.938 168.742C682.214 164.464 682.214 160.186 681.938 155.908C681.662 151.906 680.903 148.249 679.661 144.937C678.557 141.625 676.694 139.003 674.072 137.071C671.45 135.139 667.793 134.173 663.101 134.173C658.823 134.173 655.304 135.139 652.544 137.071C649.784 138.865 647.714 141.28 646.334 144.316C644.954 147.214 644.195 150.388 644.057 153.838C643.919 156.46 643.85 159.013 643.85 161.497C643.85 163.981 643.919 166.603 644.057 169.363C644.333 173.089 645.092 176.539 646.334 179.713C647.576 182.887 649.577 185.509 652.337 187.579C655.097 189.511 658.685 190.477 663.101 190.477Z" fill="white"/>
<path d="M744.216 216.145C742.698 216.145 741.456 215.662 740.49 214.696C739.524 213.592 739.041 212.35 739.041 210.97V113.68C739.041 112.162 739.524 110.92 740.49 109.954C741.456 108.988 742.698 108.505 744.216 108.505H768.642C770.16 108.505 771.402 108.988 772.368 109.954C773.334 110.92 773.817 112.162 773.817 113.68V210.97C773.817 212.35 773.334 213.592 772.368 214.696C771.402 215.662 770.16 216.145 768.642 216.145H744.216ZM744.009 92.98C742.491 92.98 741.249 92.497 740.283 91.531C739.317 90.565 738.834 89.323 738.834 87.805V69.175C738.834 67.795 739.317 66.622 740.283 65.656C741.249 64.552 742.491 64 744.009 64H768.849C770.229 64 771.402 64.552 772.368 65.656C773.472 66.622 774.024 67.795 774.024 69.175V87.805C774.024 89.323 773.472 90.565 772.368 91.531C771.402 92.497 770.229 92.98 768.849 92.98H744.009Z" fill="white"/>
<path d="M848.755 218.215C838.543 218.215 829.504 216.352 821.638 212.626C813.772 208.9 807.493 203.518 802.801 196.48C798.247 189.304 795.763 180.748 795.349 170.812C795.211 168.604 795.142 165.844 795.142 162.532C795.142 159.082 795.211 156.253 795.349 154.045C795.763 143.971 798.247 135.415 802.801 128.377C807.355 121.201 813.565 115.75 821.431 112.024C829.435 108.298 838.543 106.435 848.755 106.435C858.277 106.435 866.419 107.815 873.181 110.575C880.081 113.197 885.601 116.509 889.741 120.511C894.019 124.513 897.193 128.653 899.263 132.931C901.471 137.071 902.644 140.728 902.782 143.902C902.92 145.282 902.437 146.524 901.333 147.628C900.229 148.594 898.987 149.077 897.607 149.077H871.318C869.8 149.077 868.627 148.732 867.799 148.042C866.971 147.352 866.212 146.317 865.522 144.937C863.866 140.659 861.727 137.623 859.105 135.829C856.621 134.035 853.378 133.138 849.376 133.138C843.856 133.138 839.578 134.932 836.542 138.52C833.644 142.108 832.057 147.628 831.781 155.08C831.643 160.6 831.643 165.499 831.781 169.777C832.195 177.367 833.851 182.887 836.749 186.337C839.647 189.787 843.856 191.512 849.376 191.512C853.654 191.512 857.035 190.615 859.519 188.821C862.003 186.889 864.004 183.853 865.522 179.713C866.212 178.333 866.971 177.298 867.799 176.608C868.627 175.918 869.8 175.573 871.318 175.573H897.607C898.987 175.573 900.229 176.056 901.333 177.022C902.437 177.988 902.92 179.23 902.782 180.748C902.644 182.956 901.954 185.647 900.712 188.821C899.47 191.995 897.538 195.307 894.916 198.757C892.294 202.207 888.844 205.381 884.566 208.279C880.426 211.177 875.389 213.592 869.455 215.524C863.521 217.318 856.621 218.215 848.755 218.215Z" fill="white"/>
<path d="M26.7618 219.916L124.433 277.097C133.078 282.158 143.777 282.18 152.443 277.153L251.142 219.898C259.72 214.922 265 205.755 265 195.838V84.6197C265 74.6348 259.648 65.4159 250.977 60.4651L152.276 4.11106C143.695 -0.7883 133.159 -0.767419 124.598 4.16591L26.9276 60.4463C18.3103 65.4118 13 74.6006 13 84.5461V195.912C13 205.789 18.238 214.925 26.7618 219.916Z" fill="#F5F5F5"/>
<g filter="url(#filter0_f_1099_2679)">
<path d="M227.728 140.837C227.728 189.891 187.962 229.658 138.907 229.658C89.8525 229.658 50.0859 189.891 50.0859 140.837C50.0859 91.7822 89.8525 52.0156 138.907 52.0156C187.962 52.0156 227.728 91.7822 227.728 140.837Z" fill="#00E28D"/>
</g>
<path fill-rule="evenodd" clip-rule="evenodd" d="M124.505 121.728C133.146 126.783 143.838 126.805 152.499 121.784L251.076 64.6426L262.235 83.8938L163.451 141.155C154.869 146.13 149.586 155.299 149.586 165.219V276.573H127.334V165.116C127.334 155.235 122.093 146.097 113.565 141.108L15.7266 83.8714L26.9625 64.6649L124.505 121.728Z" fill="#F5F5F5"/>
<defs>
<filter id="filter0_f_1099_2679" x="0.0197182" y="1.94941" width="277.773" height="277.775" filterUnits="userSpaceOnUse" color-interpolation-filters="sRGB">
<feFlood flood-opacity="0" result="BackgroundImageFix"/>
<feBlend mode="normal" in="SourceGraphic" in2="BackgroundImageFix" result="shape"/>
<feGaussianBlur stdDeviation="25.0331" result="effect1_foregroundBlur_1099_2679"/>
</filter>
</defs>
</svg>
